<svg width="145" height="36" viewBox="0 0 145 36" fill="currentColor" xmlns="http://www.w3.org/2000/svg">
<path d="M133.573 8.568C136.741 8.568 139.301 9.576 141.253 11.592C143.205 13.576 144.181 16.36 144.181 19.944V35.544H137.461V20.856C137.461 18.744 136.933 17.128 135.877 16.008C134.821 14.856 133.381 14.28 131.557 14.28C129.701 14.28 128.229 14.856 127.141 16.008C126.085 17.128 125.557 18.744 125.557 20.856V35.544H118.837V8.952H125.557V12.264C126.453 11.112 127.589 10.216 128.965 9.576C130.373 8.904 131.909 8.568 133.573 8.568Z" />
<path d="M86.4983 22.152C86.4983 19.464 87.0263 17.08 88.0823 15C89.1703 12.92 90.6263 11.32 92.4503 10.2C94.3063 9.08 96.3703 8.52 98.6423 8.52C100.626 8.52 102.354 8.92 103.826 9.72C105.33 10.52 106.53 11.528 107.426 12.744V8.952H114.194V35.544H107.426V31.656C106.562 32.904 105.362 33.944 103.826 34.776C102.322 35.576 100.578 35.976 98.5943 35.976C96.3543 35.976 94.3063 35.4 92.4503 34.248C90.6263 33.096 89.1703 31.48 88.0823 29.4C87.0263 27.288 86.4983 24.872 86.4983 22.152ZM107.426 22.248C107.426 20.616 107.106 19.224 106.466 18.072C105.826 16.888 104.962 15.992 103.874 15.384C102.786 14.744 101.618 14.424 100.37 14.424C99.1223 14.424 97.9703 14.728 96.9143 15.336C95.8583 15.944 94.9943 16.84 94.3223 18.024C93.6823 19.176 93.3623 20.552 93.3623 22.152C93.3623 23.752 93.6823 25.16 94.3223 26.376C94.9943 27.56 95.8583 28.472 96.9143 29.112C98.0023 29.752 99.1543 30.072 100.37 30.072C101.618 30.072 102.786 29.768 103.874 29.16C104.962 28.52 105.826 27.624 106.466 26.472C107.106 25.288 107.426 23.88 107.426 22.248Z"/>
<path d="M55.887 22.152C55.887 19.464 56.415 17.08 57.471 15C58.559 12.92 60.031 11.32 61.887 10.2C63.743 9.08 65.807 8.52 68.079 8.52C69.807 8.52 71.455 8.904 73.023 9.672C74.591 10.408 75.839 11.4 76.767 12.648V0.0240002H83.583V35.544H76.767V31.608C75.935 32.92 74.767 33.976 73.263 34.776C71.759 35.576 70.015 35.976 68.031 35.976C65.791 35.976 63.743 35.4 61.887 34.248C60.031 33.096 58.559 31.48 57.471 29.4C56.415 27.288 55.887 24.872 55.887 22.152ZM76.815 22.248C76.815 20.616 76.495 19.224 75.855 18.072C75.215 16.888 74.351 15.992 73.263 15.384C72.175 14.744 71.007 14.424 69.759 14.424C68.511 14.424 67.359 14.728 66.303 15.336C65.247 15.944 64.383 16.84 63.711 18.024C63.071 19.176 62.751 20.552 62.751 22.152C62.751 23.752 63.071 25.16 63.711 26.376C64.383 27.56 65.247 28.472 66.303 29.112C67.391 29.752 68.543 30.072 69.759 30.072C71.007 30.072 72.175 29.768 73.263 29.16C74.351 28.52 75.215 27.624 75.855 26.472C76.495 25.288 76.815 23.88 76.815 22.248Z"/>
<path d="M52.8955 0.0240002V35.544H46.1755V0.0240002H52.8955Z"/>
<path d="M29.2942 35.976C26.7342 35.976 24.4302 35.416 22.3822 34.296C20.3342 33.144 18.7182 31.528 17.5342 29.448C16.3822 27.368 15.8062 24.968 15.8062 22.248C15.8062 19.528 16.3982 17.128 17.5822 15.048C18.7982 12.968 20.4462 11.368 22.5262 10.248C24.6062 9.096 26.9262 8.52 29.4862 8.52C32.0462 8.52 34.3662 9.096 36.4462 10.248C38.5262 11.368 40.1582 12.968 41.3422 15.048C42.5582 17.128 43.1662 19.528 43.1662 22.248C43.1662 24.968 42.5422 27.368 41.2942 29.448C40.0782 31.528 38.4142 33.144 36.3022 34.296C34.2222 35.416 31.8862 35.976 29.2942 35.976ZM29.2942 30.12C30.5102 30.12 31.6462 29.832 32.7022 29.256C33.7902 28.648 34.6542 27.752 35.2942 26.568C35.9342 25.384 36.2542 23.944 36.2542 22.248C36.2542 19.72 35.5822 17.784 34.2382 16.44C32.9262 15.064 31.3102 14.376 29.3902 14.376C27.4702 14.376 25.8542 15.064 24.5422 16.44C23.2622 17.784 22.6222 19.72 22.6222 22.248C22.6222 24.776 23.2462 26.728 24.4942 28.104C25.7742 29.448 27.3742 30.12 29.2942 30.12Z"/>
<path d="M6.72 13.08C7.584 11.672 8.704 10.568 10.08 9.768C11.488 8.968 13.088 8.568 14.88 8.568V15.624H13.104C10.992 15.624 9.392 16.12 8.304 17.112C7.248 18.104 6.72 19.832 6.72 22.296V35.544H0V8.952H6.72V13.08Z"/>
</svg>
